<?xml version="1.0" encoding="UTF-8"?>
<svg id="Calque_2" data-name="Calque 2" xmlns="http://www.w3.org/2000/svg" viewBox="0 0 80.37 77.15">
  <defs>
    <style>
      .cls-1 {
        stroke: #fff;
        stroke-miterlimit: 10;
        stroke-width: 2px;
      }

      .cls-1, .cls-2 {
        fill: #ff1f57;
      }

      .cls-3 {
        fill: #ff1e56;
      }
    </style>
  </defs>
  <g id="Calque_1-2" data-name="Calque 1">
    <g>
      <g>
        <polygon class="cls-2" points="3.7 40.41 50.96 3.72 76.67 36.74 29.41 73.44 3.7 40.41"/>
        <path class="cls-3" d="M54.28,4.94h0,0M50.44,7.92l22.02,28.29-42.52,33.02L7.91,40.94,50.44,7.92M51.21,0C50.99,0,50.77.07,50.6.2L.39,39.19c-.49.38-.52,1.18-.05,1.79l27.7,35.58c.3.39.73.6,1.13.6.22,0,.44-.07.61-.2l50.21-38.99c.49-.38.52-1.18.05-1.79L52.34.6C52.04.21,51.61,0,51.21,0h0Z"/>
      </g>
      <path class="cls-1" d="M28.72,60.07c-4.51-.32-8.03-1.48-10.57-3.49-3-2.37-4.51-5.97-4.51-10.79v-2.72l15.08-11.66c3.05.22,5.66.82,7.81,1.82v-1.74c0-2.93-.79-5.11-2.36-6.54-1.5-1.33-3.32-2-5.45-2-2.37,0-4.26.74-5.67,2.22l-2-2.03,7.67-5.92c4.58.32,8.1,1.48,10.57,3.49,1.28,1.04,2.29,2.29,3.02,3.74l9.34-7.23c4.58.32,8.1,1.48,10.57,3.49,3,2.45,4.51,6.04,4.51,10.79l-22.36,18.04c.44,1.21,1.04,2.14,1.82,2.8,1.58,1.33,3.37,2,5.38,2s4.02-.74,5.75-2.22c1.43-1.24,2.15-3.34,2.15-6.31l6.9-3.26h.36v5.89l-15.08,11.66c-3.85-.27-6.95-1.13-9.3-2.58l-5.45,2.58h-.36v-6.07l-7.81,6.07ZM28.72,54.33c2.54,0,4.43-.74,5.67-2.22,1.43-1.72,2.14-3.86,2.14-6.43,0-2.96-.79-5.14-2.36-6.54-1.5-1.33-3.32-2-5.45-2-2.54,0-4.43.74-5.67,2.22-1.43,1.72-2.14,3.83-2.14,6.32,0,3.05.79,5.27,2.36,6.65,1.53,1.33,3.34,2,5.45,2ZM43.84,44.2l15.62-12.58c0-3.09-.79-5.31-2.38-6.66-1.59-1.35-3.4-2.02-5.43-2.02-2.35,0-4.24.74-5.67,2.22-1.43,1.48-2.14,3.59-2.14,6.32v12.72Z"/>
    </g>
  </g>
</svg>